<svg width="18" height="22" viewBox="0 0 18 22" fill="none" xmlns="http://www.w3.org/2000/svg">
<path d="M15.0341 11.6678C15.009 9.01473 17.3227 7.72402 17.4285 7.66393C16.1181 5.85051 14.0871 5.60275 13.3734 5.58299C11.6676 5.4126 10.0129 6.55184 9.144 6.55184C8.25771 6.55184 6.91959 5.59945 5.47741 5.62744C3.62157 5.6546 1.88541 6.67449 0.933206 8.25825C-1.0319 11.4875 0.433691 16.233 2.31641 18.8432C3.25821 20.1216 4.35871 21.5489 5.79915 21.4987C7.20837 21.4436 7.73478 20.6459 9.43538 20.6459C11.1204 20.6459 11.6147 21.4987 13.0838 21.4666C14.5962 21.4436 15.5484 20.1825 16.4572 18.8926C17.5456 17.4274 17.9827 15.9844 18 15.9103C17.9644 15.8988 15.0627 14.8476 15.0341 11.6678Z" fill="black"/>
<path d="M12.259 3.86589C13.017 2.96618 13.5356 1.74214 13.3916 0.5C12.2946 0.546097 10.9227 1.22026 10.1326 2.10022C9.43365 2.87563 8.80925 4.14658 8.97056 5.3418C10.2029 5.42906 11.4681 4.7516 12.259 3.86589Z" fill="black"/>
</svg>
