<svg width="24" height="24" viewBox="0 0 24 24" fill="none" xmlns="http://www.w3.org/2000/svg">
<g id="settings">
<path id="Vector" d="M4.56821 12.98C4.52821 12.66 4.49821 12.34 4.49821 12C4.49821 11.66 4.52821 11.34 4.56821 11.02L2.45821 9.37C2.26821 9.22 2.21821 8.95 2.33821 8.73L4.33821 5.27C4.42821 5.11 4.59821 5.02 4.77821 5.02C4.83821 5.02 4.89821 5.03 4.94821 5.05L7.43821 6.05C7.95821 5.65 8.51821 5.32 9.12821 5.07L9.50821 2.42C9.53821 2.18 9.74821 2 9.99821 2H13.9982C14.2482 2 14.4582 2.18 14.4882 2.42L14.8682 5.07C15.4782 5.32 16.0382 5.66 16.5582 6.05L19.0482 5.05C19.1082 5.03 19.1682 5.02 19.2282 5.02C19.3982 5.02 19.5682 5.11 19.6582 5.27L21.6582 8.73C21.7882 8.95 21.7282 9.22 21.5382 9.37L19.4282 11.02C19.4682 11.34 19.4982 11.67 19.4982 12C19.4982 12.33 19.4682 12.66 19.4282 12.98L21.5382 14.63C21.7282 14.78 21.7782 15.05 21.6582 15.27L19.6582 18.73C19.5682 18.89 19.3982 18.98 19.2182 18.98C19.1582 18.98 19.0982 18.97 19.0482 18.95L16.5582 17.95C16.0382 18.35 15.4782 18.68 14.8682 18.93L14.4882 21.58C14.4582 21.82 14.2482 22 13.9982 22H9.99821C9.74821 22 9.53821 21.82 9.50821 21.58L9.12821 18.93C8.51821 18.68 7.95821 18.34 7.43821 17.95L4.94821 18.95C4.88821 18.97 4.82821 18.98 4.76821 18.98C4.59821 18.98 4.42821 18.89 4.33821 18.73L2.33821 15.27C2.21821 15.05 2.26821 14.78 2.45821 14.63L4.56821 12.98ZM6.54821 11.27C6.50821 11.58 6.49821 11.79 6.49821 12C6.49821 12.21 6.51821 12.43 6.54821 12.73L6.68821 13.86L5.79821 14.56L4.71821 15.4L5.41821 16.61L6.68821 16.1L7.72821 15.68L8.62821 16.36C9.05821 16.68 9.46821 16.92 9.87821 17.09L10.9382 17.52L11.0982 18.65L11.2982 20H12.6982L13.0482 17.52L14.1082 17.09C14.5382 16.91 14.9382 16.68 15.3382 16.38L16.2482 15.68L17.3082 16.11L18.5782 16.62L19.2782 15.41L18.1982 14.57L17.3082 13.87L17.4482 12.74C17.4782 12.43 17.4982 12.2 17.4982 12C17.4982 11.8 17.4782 11.57 17.4482 11.27L17.3082 10.14L18.1982 9.44L19.2782 8.6L18.5782 7.39L17.3082 7.9L16.2682 8.32L15.3682 7.64C14.9382 7.32 14.5282 7.08 14.1182 6.91L13.0582 6.48L12.8982 5.35L12.6982 4H11.3082L10.9582 6.48L9.89821 6.91C9.46821 7.09 9.06821 7.32 8.66821 7.62L7.75821 8.32L6.69821 7.89L5.42821 7.38L4.72821 8.59L5.79821 9.44L6.68821 10.14L6.54821 11.27ZM11.9982 8C14.2082 8 15.9982 9.79 15.9982 12C15.9982 14.21 14.2082 16 11.9982 16C9.78821 16 7.99821 14.21 7.99821 12C7.99821 9.79 9.78821 8 11.9982 8ZM11.9982 14C13.0982 14 13.9982 13.1 13.9982 12C13.9982 10.9 13.0982 10 11.9982 10C10.8982 10 9.99821 10.9 9.99821 12C9.99821 13.1 10.8982 14 11.9982 14Z" fill="#7A7681"/>
</g>
</svg>
